<svg width="20" height="24" viewBox="0 0 20 24" fill="none" xmlns="http://www.w3.org/2000/svg">
<path d="M18 23.0013H2C0.9 23.0013 0 22.1013 0 21.0013C0 19.9013 0.9 19.0013 2 19.0013H18C19.1 19.0013 20 19.9013 20 21.0013C20 22.1013 19.1 23.0013 18 23.0013ZM11.06 4.19128L14.81 7.94128L6.04 16.7113C5.86 16.9013 5.6 17.0013 5.34 17.0013H3C2.45 17.0013 2 16.5513 2 16.0013V13.6613C2 13.3913 2.11 13.1413 2.29 12.9513L11.06 4.19128ZM15.88 6.87128L12.13 3.12128L13.96 1.29128C14.35 0.901279 14.98 0.901279 15.37 1.29128L17.71 3.63128C18.1 4.02128 18.1 4.65128 17.71 5.04128L15.88 6.87128Z" fill="#00B4FF"/>
</svg>
