<svg width="14" height="12" viewBox="0 0 14 12" fill="none" xmlns="http://www.w3.org/2000/svg">
<path d="M12.3335 0.666748H1.66683C0.933496 0.666748 0.340163 1.26675 0.340163 2.00008L0.333496 10.0001C0.333496 10.7334 0.933496 11.3334 1.66683 11.3334H12.3335C13.0668 11.3334 13.6668 10.7334 13.6668 10.0001V2.00008C13.6668 1.26675 13.0668 0.666748 12.3335 0.666748ZM12.0668 3.50008L7.3535 6.44675C7.14016 6.58008 6.86016 6.58008 6.64683 6.44675L1.9335 3.50008C1.76683 3.39341 1.66683 3.21341 1.66683 3.02008C1.66683 2.57341 2.1535 2.30675 2.5335 2.54008L7.00016 5.33341L11.4668 2.54008C11.8468 2.30675 12.3335 2.57341 12.3335 3.02008C12.3335 3.21341 12.2335 3.39341 12.0668 3.50008Z" fill="#E0E0E0"/>
</svg>
